<?xml version="1.0" encoding="UTF-8" standalone="no"?>
<svg
   height="512pt"
   version="1.1"
   viewBox="0 0 512 512"
   width="512pt"
   id="svg61"
   sodipodi:docname="49d185208a483a09840322.svg"
   inkscape:version="1.3.1 (91b66b0783, 2023-11-16)"
   xmlns:inkscape="http://www.inkscape.org/namespaces/inkscape"
   xmlns:sodipodi="http://sodipodi.sourceforge.net/DTD/sodipodi-0.dtd"
   xmlns="http://www.w3.org/2000/svg"
   xmlns:svg="http://www.w3.org/2000/svg">
  <defs
     id="defs61">
    <rect
       x="491.42022"
       y="152.99716"
       width="85.645148"
       height="47.395859"
       id="rect65" />
    <rect
       x="300.17377"
       y="144.6821"
       width="60.699959"
       height="51.55339"
       id="rect64" />
    <rect
       x="119.73691"
       y="158.8177"
       width="90.634186"
       height="43.238327"
       id="rect63" />
    <rect
       x="310.98335"
       y="147.17661"
       width="73.172554"
       height="49.890378"
       id="rect62" />
    <rect
       x="308.48883"
       y="149.67113"
       width="57.373934"
       height="43.238327"
       id="rect61" />
  </defs>
  <sodipodi:namedview
     id="namedview61"
     pagecolor="#ffffff"
     bordercolor="#000000"
     borderopacity="0.25"
     inkscape:showpageshadow="2"
     inkscape:pageopacity="0.0"
     inkscape:pagecheckerboard="0"
     inkscape:deskcolor="#d1d1d1"
     inkscape:document-units="pt"
     inkscape:zoom="1.2026367"
     inkscape:cx="340.91758"
     inkscape:cy="340.91758"
     inkscape:window-width="1901"
     inkscape:window-height="1040"
     inkscape:window-x="7"
     inkscape:window-y="0"
     inkscape:window-maximized="0"
     inkscape:current-layer="svg61" />
  <path
     d="M 0.00 0.00 L 512.00 0.00 L 512.00 512.00 L 0.00 512.00 L 0.00 0.00 Z"
     fill="transparent"
     opacity="1.00"
     stroke="transparent"
     stroke-width="0.25"
     id="path1" />
  <path
     d="M 233.57 38.52 C 239.03 36.05 244.21 32.84 250.10 31.47 C 249.49 32.85 248.87 34.23 248.26 35.62 C 238.10 39.95 228.43 45.34 218.31 49.78 C 216.28 49.64 214.29 49.23 212.32 48.74 C 219.13 44.79 226.51 41.97 233.57 38.52 Z"
     fill="#4e494b"
     opacity="1.00"
     stroke="#4e494b"
     stroke-width="0.25"
     id="path2" />
  <path
     d="M 250.10 31.47 C 253.16 31.83 255.96 33.16 258.65 34.59 C 257.73 35.38 256.81 36.16 255.90 36.95 C 253.54 35.76 250.91 34.60 248.26 35.62 C 248.87 34.23 249.49 32.85 250.10 31.47 Z"
     fill="#3e3b3f"
     opacity="1.00"
     stroke="#3e3b3f"
     stroke-width="0.25"
     id="path3" />
  <path
     d="M 248.26 35.62 C 250.91 34.60 253.54 35.76 255.90 36.95 C 268.29 42.98 280.66 49.04 293.26 54.62 C 297.38 56.49 301.68 58.16 305.22 61.08 C 300.96 64.24 295.94 66.07 291.23 68.41 C 283.21 72.37 274.93 75.79 266.91 79.75 C 261.75 82.04 256.84 84.86 251.94 87.64 C 242.07 82.63 231.92 78.22 221.90 73.53 C 213.50 69.38 204.83 65.73 196.81 60.87 C 203.37 56.16 211.06 53.26 218.31 49.78 C 228.43 45.34 238.10 39.95 248.26 35.62 Z"
     fill="#ffffff"
     opacity="1.00"
     stroke="#ffffff"
     stroke-width="0.25"
     id="path4" />
  <path
     d="M 258.65 34.59 C 270.72 40.63 282.98 46.29 295.30 51.81 C 301.64 54.74 307.67 58.39 314.40 60.45 C 326.31 65.75 337.95 71.67 349.87 76.98 L 349.85 77.05 C 349.58 77.80 349.05 79.29 348.79 80.04 C 341.49 76.79 334.22 73.46 326.95 70.14 C 321.28 67.58 315.83 64.50 309.89 62.57 C 298.41 69.28 286.62 75.42 274.56 81.03 C 271.96 80.99 269.41 80.41 266.91 79.75 C 274.93 75.79 283.21 72.37 291.23 68.41 C 295.94 66.07 300.96 64.24 305.22 61.08 C 301.68 58.16 297.38 56.49 293.26 54.62 C 280.66 49.04 268.29 42.98 255.90 36.95 C 256.81 36.16 257.73 35.38 258.65 34.59 Z"
     fill="#1d1b1b"
     opacity="1.00"
     stroke="#1d1b1b"
     stroke-width="0.25"
     id="path5" />
  <path
     d="M 212.09 48.68 L 212.32 48.74 C 214.29 49.23 216.28 49.64 218.31 49.78 C 211.06 53.26 203.37 56.16 196.81 60.87 C 204.83 65.73 213.50 69.38 221.90 73.53 C 220.14 74.38 218.29 75.13 216.33 75.30 C 207.85 71.25 199.65 66.65 191.17 62.62 C 184.74 64.68 178.90 68.13 172.82 71.00 C 167.43 73.55 162.07 76.17 156.69 78.74 C 156.89 77.33 157.09 75.92 157.29 74.51 C 169.14 69.27 180.49 62.92 192.59 58.26 C 199.09 55.07 205.50 51.68 212.09 48.68 Z"
     fill="#211f20"
     opacity="1.00"
     stroke="#211f20"
     stroke-width="0.25"
     id="path6" />
  <path
     d="M 172.82 71.00 C 178.90 68.13 184.74 64.68 191.17 62.62 C 199.65 66.65 207.85 71.25 216.33 75.30 C 223.42 78.59 230.40 82.14 237.54 85.34 C 239.48 86.15 241.23 87.33 242.72 88.81 C 241.76 92.64 238.05 94.10 234.81 95.51 C 223.54 101.05 212.02 106.08 200.74 111.61 C 196.35 113.78 191.69 115.64 188.04 119.01 C 185.64 121.46 181.40 120.99 178.71 119.25 C 173.79 116.16 168.45 113.89 163.31 111.22 C 154.35 106.65 145.42 102.02 136.42 97.53 C 133.76 96.22 131.25 94.65 128.84 92.94 C 132.34 89.69 136.86 88.00 141.11 86.00 C 146.33 83.65 151.52 81.21 156.69 78.74 C 162.07 76.17 167.43 73.55 172.82 71.00 Z"
     fill="#ffffff"
     opacity="1.00"
     stroke="#ffffff"
     stroke-width="0.25"
     id="path7" />
  <path
     d="M 274.56 81.03 C 286.62 75.42 298.41 69.28 309.89 62.57 C 315.83 64.50 321.28 67.58 326.95 70.14 C 334.22 73.46 341.49 76.79 348.79 80.04 C 355.88 83.42 363.17 86.37 370.16 89.95 C 371.89 90.68 373.05 92.20 373.64 93.95 C 359.91 100.14 346.68 107.36 333.14 113.95 C 329.03 115.87 325.46 118.91 321.11 120.30 C 317.18 119.85 314.13 117.03 310.62 115.45 C 300.80 110.93 291.02 106.31 281.25 101.68 C 274.12 98.36 266.78 95.36 260.15 91.09 C 260.58 89.72 260.53 87.87 262.12 87.24 C 266.15 84.94 270.39 83.05 274.56 81.03 Z"
     fill="#ffffff"
     opacity="1.00"
     stroke="#ffffff"
     stroke-width="0.25"
     id="path8" />
  <path
     d="M 221.90 73.53 C 231.92 78.22 242.07 82.63 251.94 87.64 C 256.84 84.86 261.75 82.04 266.91 79.75 C 269.41 80.41 271.96 80.99 274.56 81.03 C 270.39 83.05 266.15 84.94 262.12 87.24 C 260.53 87.87 260.58 89.72 260.15 91.09 C 266.78 95.36 274.12 98.36 281.25 101.68 C 291.02 106.31 300.80 110.93 310.62 115.45 C 314.13 117.03 317.18 119.85 321.11 120.30 C 325.46 118.91 329.03 115.87 333.14 113.95 C 346.68 107.36 359.91 100.14 373.64 93.95 C 373.05 92.20 371.89 90.68 370.16 89.95 C 363.17 86.37 355.88 83.42 348.79 80.04 C 349.05 79.29 349.58 77.80 349.85 77.05 C 358.51 81.00 367.27 84.76 375.68 89.23 C 378.30 90.61 381.21 91.24 384.10 91.80 C 383.75 92.48 383.06 93.85 382.72 94.53 C 380.35 93.55 378.10 94.98 376.04 96.01 C 362.05 103.85 347.57 110.80 333.60 118.67 C 331.19 119.64 329.18 123.24 332.19 124.80 C 347.51 133.71 363.68 141.10 379.73 148.60 C 378.35 149.09 376.98 149.58 375.61 150.08 C 363.14 144.55 350.78 138.76 338.52 132.77 C 332.29 129.68 326.20 125.31 318.98 125.21 C 315.12 125.51 311.87 127.92 308.54 129.65 C 296.56 136.52 284.30 142.85 272.15 149.39 C 268.07 151.69 263.41 153.14 259.87 156.29 C 258.87 158.25 260.20 160.16 262.00 160.98 C 281.70 171.64 301.52 182.09 321.38 192.45 C 319.82 193.67 318.27 194.89 316.71 196.12 C 300.15 187.63 283.92 178.51 267.84 169.16 C 262.65 166.04 256.86 164.18 251.04 162.66 C 246.04 164.57 241.06 166.62 236.49 169.43 C 235.69 168.45 234.90 167.47 234.14 166.46 C 237.03 164.35 240.65 162.90 242.83 159.98 C 244.46 157.68 241.82 155.91 240.15 154.78 C 226.81 146.47 212.47 139.94 198.75 132.28 C 193.53 129.48 188.33 124.98 181.96 126.37 C 175.35 127.69 169.97 132.16 163.91 134.88 C 164.24 133.16 164.57 131.43 164.91 129.71 C 167.82 128.05 171.57 127.17 173.44 124.19 C 173.95 121.57 171.31 120.48 169.51 119.37 C 166.14 117.51 162.70 115.77 159.32 113.95 C 160.64 113.04 161.98 112.13 163.31 111.22 C 168.45 113.89 173.79 116.16 178.71 119.25 C 181.40 120.99 185.64 121.46 188.04 119.01 C 191.69 115.64 196.35 113.78 200.74 111.61 C 202.16 111.96 203.65 113.12 205.13 112.29 C 211.09 110.30 216.12 104.95 222.78 105.67 C 212.81 111.13 201.72 114.81 192.76 121.95 C 194.01 125.35 197.65 126.62 200.52 128.30 C 214.77 135.51 228.82 143.12 243.20 150.05 C 245.70 151.15 248.20 152.47 250.95 152.77 C 255.51 152.11 259.58 149.77 263.72 147.86 C 276.85 141.76 289.57 134.82 302.51 128.32 C 305.20 126.81 308.17 125.51 310.23 123.14 C 311.24 121.69 310.50 119.81 308.89 119.23 C 292.79 111.05 276.03 104.23 259.90 96.10 C 256.61 94.57 253.11 91.75 249.30 93.14 C 243.41 95.06 238.10 98.32 232.51 100.93 C 233.02 99.02 233.85 97.23 234.81 95.51 C 238.05 94.10 241.76 92.64 242.72 88.81 C 241.23 87.33 239.48 86.15 237.54 85.34 C 230.40 82.14 223.42 78.59 216.33 75.30 C 218.29 75.13 220.14 74.38 221.90 73.53 Z"
     fill="#0f0c0d"
     opacity="1.00"
     stroke="#0f0c0d"
     stroke-width="0.25"
     id="path9" />
  <path
     d="M 128.62 88.67 C 137.81 83.25 147.69 79.13 157.29 74.51 C 157.09 75.92 156.89 77.33 156.69 78.74 C 151.52 81.21 146.33 83.65 141.11 86.00 C 136.86 88.00 132.34 89.69 128.84 92.94 C 131.25 94.65 133.76 96.22 136.42 97.53 C 145.42 102.02 154.35 106.65 163.31 111.22 C 161.98 112.13 160.64 113.04 159.32 113.95 C 147.87 107.72 135.82 102.53 125.05 95.13 C 125.52 93.56 125.97 91.99 126.48 90.44 C 126.76 89.49 127.93 89.25 128.62 88.67 Z"
     fill="#322f30"
     opacity="1.00"
     stroke="#322f30"
     stroke-width="0.25"
     id="path10" />
  <path
     d="M 101.60 99.71 C 109.69 96.17 117.37 90.77 126.48 90.44 C 125.97 91.99 125.52 93.56 125.05 95.13 C 121.40 94.20 117.96 96.36 114.70 97.70 C 96.74 106.57 78.70 115.32 60.31 123.27 C 58.07 124.37 55.25 125.04 54.19 127.58 C 53.96 127.45 53.51 127.20 53.29 127.07 C 52.70 129.05 51.78 130.89 50.44 132.47 C 49.22 132.41 47.99 132.36 46.77 132.31 C 46.92 127.04 51.52 123.84 55.88 121.89 C 71.11 114.49 86.57 107.55 101.60 99.71 Z"
     fill="#716d6d"
     opacity="1.00"
     stroke="#716d6d"
     stroke-width="0.25"
     id="path11" />
  <path
     d="M 384.10 91.80 C 389.57 93.29 394.68 95.78 399.75 98.26 C 414.57 105.55 429.74 112.07 444.59 119.27 C 444.16 119.98 443.31 121.38 442.88 122.09 C 431.46 117.26 420.16 112.16 408.87 107.05 C 400.12 102.94 391.55 98.46 382.72 94.53 C 383.06 93.85 383.75 92.48 384.10 91.80 Z"
     fill="#252222"
     opacity="1.00"
     stroke="#252222"
     stroke-width="0.25"
     id="path12" />
  <path
     d="M 249.30 93.14 C 253.11 91.75 256.61 94.57 259.90 96.10 C 276.03 104.23 292.79 111.05 308.89 119.23 C 310.50 119.81 311.24 121.69 310.23 123.14 C 308.17 125.51 305.20 126.81 302.51 128.32 C 289.57 134.82 276.85 141.76 263.72 147.86 C 259.58 149.77 255.51 152.11 250.95 152.77 C 248.20 152.47 245.70 151.15 243.20 150.05 C 228.82 143.12 214.77 135.51 200.52 128.30 C 197.65 126.62 194.01 125.35 192.76 121.95 C 201.72 114.81 212.81 111.13 222.78 105.67 C 226.08 104.21 229.30 102.56 232.51 100.93 C 238.10 98.32 243.41 95.06 249.30 93.14 Z"
     fill="#ffffff"
     opacity="1.00"
     stroke="#ffffff"
     stroke-width="0.25"
     id="path13" />
  <path
     d="M 376.04 96.01 C 378.10 94.98 380.35 93.55 382.72 94.53 C 391.55 98.46 400.12 102.94 408.87 107.05 C 420.16 112.16 431.46 117.26 442.88 122.09 C 444.93 122.95 447.12 123.67 448.81 125.18 C 449.63 127.94 446.31 129.19 444.61 130.66 C 435.89 135.94 427.12 141.16 418.17 146.03 C 412.38 149.29 406.85 153.14 400.57 155.44 C 398.44 156.32 396.22 155.25 394.19 154.59 C 389.33 152.71 384.48 150.76 379.73 148.60 C 363.68 141.10 347.51 133.71 332.19 124.80 C 329.18 123.24 331.19 119.64 333.60 118.67 C 347.57 110.80 362.05 103.85 376.04 96.01 Z"
     fill="#ffffff"
     opacity="1.00"
     stroke="#ffffff"
     stroke-width="0.25"
     id="path14" />
  <path
     d="M 114.70 97.70 C 117.96 96.36 121.40 94.20 125.05 95.13 C 135.82 102.53 147.87 107.72 159.32 113.95 C 162.70 115.77 166.14 117.51 169.51 119.37 C 171.31 120.48 173.95 121.57 173.44 124.19 C 171.57 127.17 167.82 128.05 164.91 129.71 C 146.93 138.61 128.45 146.48 110.57 155.59 C 108.37 157.01 105.75 157.20 103.50 155.78 C 86.72 147.00 70.28 137.56 54.19 127.58 C 55.25 125.04 58.07 124.37 60.31 123.27 C 78.70 115.32 96.74 106.57 114.70 97.70 Z"
     fill="#ffffff"
     opacity="1.00"
     stroke="#ffffff"
     stroke-width="0.25"
     id="path15" />
  <path
     d="M 200.74 111.61 C 212.02 106.08 223.54 101.05 234.81 95.51 C 233.85 97.23 233.02 99.02 232.51 100.93 C 229.30 102.56 226.08 104.21 222.78 105.67 C 216.12 104.95 211.09 110.30 205.13 112.29 C 203.65 113.12 202.16 111.96 200.74 111.61 Z"
     fill="#201d1d"
     opacity="1.00"
     stroke="#201d1d"
     stroke-width="0.25"
     id="path16" />
  <path
     d="M 444.59 119.27 C 448.98 122.09 456.27 123.33 456.44 129.78 C 455.45 130.81 454.47 131.85 453.47 132.86 C 450.75 135.51 447.32 137.23 444.07 139.11 C 434.24 144.64 424.56 150.45 414.47 155.50 C 409.69 158.12 404.35 160.53 401.32 165.30 C 399.18 168.29 398.57 172.02 398.40 175.61 C 398.10 181.90 398.42 188.20 398.19 194.48 C 396.44 199.67 397.56 205.26 395.90 210.47 C 395.53 196.43 396.60 182.38 396.05 168.35 C 391.64 169.87 387.76 172.51 383.64 174.64 C 368.47 182.72 353.34 190.90 338.42 199.42 C 333.37 201.90 331.40 207.62 331.42 212.92 C 331.31 230.76 332.17 248.59 332.27 266.43 C 330.15 268.57 330.14 271.55 330.41 274.33 C 331.32 274.09 332.24 273.84 333.16 273.60 C 333.33 277.42 332.86 281.42 329.68 283.96 C 330.69 285.85 331.82 287.68 333.06 289.44 C 331.71 301.89 332.88 314.44 332.64 326.94 C 332.81 331.84 332.16 336.88 333.50 341.66 C 335.16 345.45 339.93 346.57 343.69 345.93 C 345.39 346.33 347.05 346.86 348.72 347.40 C 344.21 351.32 338.88 354.04 333.52 356.59 C 331.53 357.30 330.77 359.28 330.22 361.13 C 328.01 362.50 324.85 363.54 324.73 366.64 C 326.78 384.35 325.05 402.23 326.26 420.00 C 326.30 422.93 326.94 425.81 327.85 428.60 C 325.41 429.99 323.34 431.96 321.74 434.26 C 323.86 421.28 323.01 408.08 323.28 394.98 C 323.18 387.25 323.67 379.47 322.49 371.80 C 320.96 368.99 317.93 370.72 315.94 371.95 C 298.47 382.68 281.62 394.40 263.88 404.69 C 260.18 406.76 255.98 409.05 255.11 413.65 C 253.68 421.69 254.99 429.90 254.76 438.02 C 255.31 449.05 255.35 460.10 255.29 471.15 C 255.02 473.38 256.38 475.18 257.70 476.81 C 259.74 475.92 261.81 475.06 263.80 474.04 C 264.63 475.35 265.47 476.67 266.31 478.00 C 261.18 480.80 256.37 484.16 251.20 486.89 C 249.48 488.05 247.51 486.79 245.86 486.17 C 242.01 484.19 238.38 481.79 234.84 479.32 C 234.97 478.59 235.22 477.15 235.35 476.42 C 237.79 478.01 240.15 479.99 243.04 480.66 C 246.60 480.13 246.09 475.63 246.29 472.96 C 246.49 453.42 246.39 433.88 246.58 414.34 C 246.55 412.16 246.47 409.98 246.38 407.81 C 244.48 406.27 242.51 404.82 240.42 403.57 C 240.18 401.20 239.05 399.07 237.64 397.20 C 239.55 398.24 241.51 399.36 243.71 399.69 C 246.51 397.32 245.83 393.23 246.15 389.97 C 246.30 371.53 246.53 353.08 246.36 334.63 C 246.29 332.35 246.30 330.07 246.33 327.79 C 246.33 326.15 246.19 324.52 245.96 322.90 C 245.15 317.63 245.65 312.29 245.55 306.99 C 245.50 287.54 245.84 268.09 245.48 248.65 C 242.29 246.05 238.88 243.75 235.35 241.65 C 239.26 242.08 243.30 243.04 247.11 241.50 C 245.13 241.14 243.14 240.82 241.16 240.50 C 241.15 240.02 241.14 239.07 241.14 238.59 C 242.60 238.39 244.06 238.19 245.53 238.07 C 250.31 241.07 255.50 237.94 259.93 235.85 C 275.49 227.79 290.78 219.24 306.22 210.95 C 311.30 207.97 316.98 205.83 321.49 201.98 C 322.22 198.86 318.90 197.37 316.71 196.12 C 318.27 194.89 319.82 193.67 321.38 192.45 C 323.87 193.62 326.38 194.80 329.06 195.48 C 331.97 195.03 334.53 193.39 337.14 192.08 C 352.98 183.38 368.49 174.10 384.19 165.14 C 386.85 163.53 389.60 161.94 391.74 159.65 C 392.11 158.51 391.78 157.02 390.54 156.58 C 385.61 154.31 380.58 152.25 375.61 150.08 C 376.98 149.58 378.35 149.09 379.73 148.60 C 384.48 150.76 389.33 152.71 394.19 154.59 C 396.22 155.25 398.44 156.32 400.57 155.44 C 406.85 153.14 412.38 149.29 418.17 146.03 C 427.12 141.16 435.89 135.94 444.61 130.66 C 446.31 129.19 449.63 127.94 448.81 125.18 C 447.12 123.67 444.93 122.95 442.88 122.09 C 443.31 121.38 444.16 119.98 444.59 119.27 Z"
     fill="#13060b"
     opacity="1.00"
     stroke="#13060b"
     stroke-width="0.25"
     id="path17" />
  <path
     d="M 308.54 129.65 C 311.87 127.92 315.12 125.51 318.98 125.21 C 326.20 125.31 332.29 129.68 338.52 132.77 C 350.78 138.76 363.14 144.55 375.61 150.08 C 380.58 152.25 385.61 154.31 390.54 156.58 C 391.78 157.02 392.11 158.51 391.74 159.65 C 389.60 161.94 386.85 163.53 384.19 165.14 C 368.49 174.10 352.98 183.38 337.14 192.08 C 334.53 193.39 331.97 195.03 329.06 195.48 C 326.38 194.80 323.87 193.62 321.38 192.45 C 301.52 182.09 281.70 171.64 262.00 160.98 C 260.20 160.16 258.87 158.25 259.87 156.29 C 263.41 153.14 268.07 151.69 272.15 149.39 C 284.30 142.85 296.56 136.52 308.54 129.65 Z"
     fill="#feffff"
     opacity="1.00"
     stroke="#feffff"
     stroke-width="0.25"
     id="path18" />
  <path
     d="M 163.91 134.88 C 169.97 132.16 175.35 127.69 181.96 126.37 C 188.33 124.98 193.53 129.48 198.75 132.28 C 212.47 139.94 226.81 146.47 240.15 154.78 C 241.82 155.91 244.46 157.68 242.83 159.98 C 240.65 162.90 237.03 164.35 234.14 166.46 C 220.78 173.85 207.02 180.48 193.43 187.45 C 187.80 190.42 182.23 193.72 175.98 195.23 C 173.21 196.04 170.87 193.86 168.55 192.71 C 152.35 183.15 135.87 174.07 119.85 164.21 C 117.80 163.01 115.85 161.58 114.44 159.64 C 114.55 159.22 114.76 158.40 114.87 157.99 C 131.49 150.89 147.85 143.17 163.91 134.88 Z"
     fill="#ffffff"
     opacity="1.00"
     stroke="#ffffff"
     stroke-width="0.25"
     id="path19" />
  <path
     d="M 53.29 127.07 C 53.51 127.20 53.96 127.45 54.19 127.58 C 70.28 137.56 86.72 147.00 103.50 155.78 C 105.75 157.20 108.37 157.01 110.57 155.59 C 112.00 156.39 113.43 157.20 114.87 157.99 C 114.76 158.40 114.55 159.22 114.44 159.64 C 112.53 161.98 112.13 165.00 111.49 167.86 C 107.37 169.46 107.78 174.47 107.86 178.08 C 108.63 191.42 108.51 204.79 109.16 218.14 C 109.43 224.29 108.75 230.62 110.60 236.59 C 111.46 239.67 114.35 241.45 116.92 243.02 C 130.60 250.71 144.31 258.36 157.95 266.13 C 161.04 267.69 164.29 270.15 167.94 269.35 C 171.29 268.05 170.65 263.82 171.10 260.95 C 171.39 246.31 171.30 231.65 171.18 217.00 C 170.93 212.44 171.12 207.47 168.62 203.44 C 166.69 200.37 163.47 198.51 160.43 196.71 C 163.04 195.20 165.77 193.89 168.55 192.71 C 170.87 193.86 173.21 196.04 175.98 195.23 C 182.23 193.72 187.80 190.42 193.43 187.45 C 207.02 180.48 220.78 173.85 234.14 166.46 C 234.90 167.47 235.69 168.45 236.49 169.43 C 222.06 179.17 206.41 186.88 190.84 194.61 C 188.11 196.01 185.27 197.27 182.80 199.11 C 182.74 199.56 182.63 200.45 182.58 200.90 C 186.18 204.70 191.02 206.98 195.43 209.68 C 212.11 219.17 228.67 228.90 245.53 238.07 C 244.06 238.19 242.60 238.39 241.14 238.59 C 241.14 239.07 241.15 240.02 241.16 240.50 C 243.14 240.82 245.13 241.14 247.11 241.50 C 243.30 243.04 239.26 242.08 235.35 241.65 C 220.25 233.19 205.35 224.35 190.40 215.62 C 186.28 213.09 182.31 210.26 177.75 208.55 C 177.29 210.66 177.02 212.83 177.11 215.00 C 177.52 235.70 177.61 256.41 178.40 277.11 C 178.33 280.38 180.28 283.35 182.98 285.08 C 197.92 294.98 213.61 303.68 228.85 313.11 C 234.42 316.60 240.15 319.82 245.96 322.90 C 246.19 324.52 246.33 326.15 246.33 327.79 C 224.37 316.93 203.50 303.99 182.86 290.82 C 181.40 292.61 179.99 294.57 179.94 296.98 C 179.39 312.33 180.41 327.68 180.59 343.03 C 180.77 347.60 180.57 352.21 181.36 356.73 C 182.14 360.62 185.43 363.28 188.53 365.41 C 204.66 376.37 221.27 386.61 237.64 397.20 C 239.05 399.07 240.18 401.20 240.42 403.57 C 229.20 396.92 218.49 389.45 207.49 382.46 C 199.10 377.19 191.03 371.43 182.82 365.91 C 182.10 367.02 181.38 368.12 180.70 369.25 C 180.13 374.14 180.47 379.09 180.39 384.01 C 180.53 399.95 180.56 415.90 181.40 431.82 C 181.96 435.47 182.83 439.63 186.03 441.92 C 192.01 446.80 198.66 450.75 204.95 455.20 C 214.99 462.41 225.34 469.17 235.35 476.42 C 235.22 477.15 234.97 478.59 234.84 479.32 C 226.58 473.88 218.55 468.11 210.46 462.44 C 201.39 456.16 192.11 450.19 183.33 443.51 C 165.41 431.16 147.63 418.59 129.63 406.35 C 121.90 401.26 114.72 395.23 106.14 391.59 C 96.13 385.50 86.72 378.48 76.78 372.27 C 70.66 368.52 64.98 364.12 58.85 360.40 C 54.99 358.13 50.88 354.89 50.74 350.00 C 50.66 335.02 50.63 320.03 50.38 305.05 C 50.31 295.67 50.02 286.27 48.75 276.98 C 48.51 256.63 48.14 236.29 47.33 215.96 C 46.63 192.65 47.77 169.33 46.84 146.02 C 46.84 141.45 46.79 136.88 46.77 132.31 C 47.99 132.36 49.22 132.41 50.44 132.47 C 51.78 130.89 52.70 129.05 53.29 127.07 Z"
     fill="#110c0d"
     opacity="1.00"
     stroke="#110c0d"
     stroke-width="0.25"
     id="path20" />
  <path
     d="M 110.57 155.59 C 128.45 146.48 146.93 138.61 164.91 129.71 C 164.57 131.43 164.24 133.16 163.91 134.88 C 147.85 143.17 131.49 150.89 114.87 157.99 C 113.43 157.20 112.00 156.39 110.57 155.59 Z"
     fill="#22191b"
     opacity="1.00"
     stroke="#22191b"
     stroke-width="0.25"
     id="path21" />
  <path
     d="M 453.47 132.86 C 454.47 131.85 455.45 130.81 456.44 129.78 C 456.20 139.20 456.22 148.63 456.16 158.06 C 455.37 171.87 456.16 185.73 455.20 199.54 C 454.93 203.39 453.50 207.04 453.22 210.88 C 453.39 254.92 453.12 298.96 453.17 343.00 C 452.88 347.97 453.47 353.79 449.47 357.52 C 444.29 361.85 438.28 365.01 432.69 368.74 C 423.82 374.58 414.77 380.14 405.75 385.74 C 402.92 383.77 398.72 383.60 396.83 386.96 C 398.03 387.69 399.24 388.41 400.45 389.15 C 397.79 390.69 394.70 390.82 391.72 390.84 C 391.52 391.84 391.34 392.85 391.16 393.87 C 376.23 404.79 361.17 415.58 345.59 425.56 C 337.36 431.38 328.43 436.20 320.50 442.45 C 302.57 454.50 284.45 466.26 266.31 478.00 C 265.47 476.67 264.63 475.35 263.80 474.04 C 280.25 464.20 296.51 454.05 312.63 443.68 C 316.21 441.16 319.95 438.41 321.74 434.26 C 323.34 431.96 325.41 429.99 327.85 428.60 C 333.75 426.86 339.11 423.75 343.98 420.03 C 352.75 414.02 361.85 408.52 370.66 402.55 C 376.16 398.72 382.48 395.97 387.37 391.32 C 390.92 385.92 389.24 379.10 389.69 373.04 C 390.30 358.93 390.52 344.80 390.39 330.67 C 389.75 330.01 389.11 329.36 388.46 328.73 C 387.33 328.58 386.14 328.44 385.14 329.08 C 372.14 335.81 360.28 344.50 347.41 351.46 C 341.65 354.62 336.06 358.11 330.22 361.13 C 330.77 359.28 331.53 357.30 333.52 356.59 C 338.88 354.04 344.21 351.32 348.72 347.40 C 347.05 346.86 345.39 346.33 343.69 345.93 C 348.93 344.57 353.75 342.06 358.44 339.43 C 368.57 333.73 378.65 327.83 387.98 320.89 C 392.52 317.79 394.44 312.28 394.34 306.95 C 394.68 287.93 394.70 268.89 394.62 249.87 C 391.69 246.85 388.28 250.17 385.42 251.53 C 369.29 261.28 353.51 271.62 337.32 281.28 C 334.57 283.03 333.70 286.44 333.06 289.44 C 331.82 287.68 330.69 285.85 329.68 283.96 C 332.86 281.42 333.33 277.42 333.16 273.60 C 332.24 273.84 331.32 274.09 330.41 274.33 C 330.14 271.55 330.15 268.57 332.27 266.43 C 332.52 268.26 333.01 270.29 334.80 271.24 C 337.87 272.43 341.29 271.57 344.21 270.31 C 351.00 267.44 357.07 263.16 363.35 259.34 C 371.68 254.31 380.12 249.47 388.40 244.36 C 392.07 242.13 394.57 238.21 395.11 233.96 C 396.01 226.16 395.61 218.29 395.90 210.47 C 397.56 205.26 396.44 199.67 398.19 194.48 C 398.41 205.98 398.14 217.48 398.22 228.98 C 397.96 230.77 399.18 232.74 401.10 232.86 C 405.11 233.02 409.02 231.59 412.41 229.55 C 421.62 223.94 431.24 219.02 440.43 213.36 C 445.55 210.09 450.58 205.40 451.42 199.06 C 453.19 186.39 451.98 173.53 453.16 160.81 C 453.48 151.50 453.63 142.18 453.47 132.86 Z"
     fill="#0e0506"
     opacity="1.00"
     stroke="#0e0506"
     stroke-width="0.25"
     id="path22" />
  <path
     d="M 444.07 139.11 C 447.32 137.23 450.75 135.51 453.47 132.86 C 453.63 142.18 453.48 151.50 453.16 160.81 C 451.98 173.53 453.19 186.39 451.42 199.06 C 450.58 205.40 445.55 210.09 440.43 213.36 C 431.24 219.02 421.62 223.94 412.41 229.55 C 409.02 231.59 405.11 233.02 401.10 232.86 C 399.18 232.74 397.96 230.77 398.22 228.98 C 398.14 217.48 398.41 205.98 398.19 194.48 C 398.42 188.20 398.10 181.90 398.40 175.61 C 398.57 172.02 399.18 168.29 401.32 165.30 C 404.35 160.53 409.69 158.12 414.47 155.50 C 424.56 150.45 434.24 144.64 444.07 139.11 Z"
     fill="#c88c55"
     opacity="1.00"
     stroke="#c88c55"
     stroke-width="0.25"
     id="path23" />
  <path
     d="M 50.29 143.95 C 50.09 141.21 51.01 138.57 52.79 136.50 C 66.03 144.24 79.61 151.39 92.85 159.15 C 96.00 161.18 99.65 163.05 101.38 166.56 C 103.81 171.67 103.25 177.50 103.33 183.00 C 103.13 195.65 103.82 208.34 102.36 220.93 C 102.00 223.68 100.96 226.96 97.98 227.81 C 95.34 229.02 92.33 228.61 89.89 227.18 C 78.29 220.76 66.88 213.98 55.06 207.98 C 51.38 205.47 51.09 200.39 50.60 196.35 C 50.29 178.89 50.46 161.42 50.29 143.95 Z"
     fill="#799f49"
     opacity="1.00"
     stroke="#799f49"
     stroke-width="0.25"
     id="path24" />
  <path
     d="M 111.49 167.86 C 112.13 165.00 112.53 161.98 114.44 159.64 C 115.85 161.58 117.80 163.01 119.85 164.21 C 135.87 174.07 152.35 183.15 168.55 192.71 C 165.77 193.89 163.04 195.20 160.43 196.71 C 143.99 187.31 127.15 178.54 111.49 167.86 Z"
     fill="#1c1114"
     opacity="1.00"
     stroke="#1c1114"
     stroke-width="0.25"
     id="path25" />
  <path
     d="M 236.49 169.43 C 241.06 166.62 246.04 164.57 251.04 162.66 C 256.86 164.18 262.65 166.04 267.84 169.16 C 283.92 178.51 300.15 187.63 316.71 196.12 C 318.90 197.37 322.22 198.86 321.49 201.98 C 316.98 205.83 311.30 207.97 306.22 210.95 C 290.78 219.24 275.49 227.79 259.93 235.85 C 255.50 237.94 250.31 241.07 245.53 238.07 C 228.67 228.90 212.11 219.17 195.43 209.68 C 191.02 206.98 186.18 204.70 182.58 200.90 C 182.63 200.45 182.74 199.56 182.80 199.11 C 185.27 197.27 188.11 196.01 190.84 194.61 C 206.41 186.88 222.06 179.17 236.49 169.43 Z"
     fill="#ffffff"
     opacity="1.00"
     stroke="#ffffff"
     stroke-width="0.25"
     id="path26" />
  <path
     d="M 107.86 178.08 C 107.78 174.47 107.37 169.46 111.49 167.86 C 127.15 178.54 143.99 187.31 160.43 196.71 C 163.47 198.51 166.69 200.37 168.62 203.44 C 171.12 207.47 170.93 212.44 171.18 217.00 C 171.30 231.65 171.39 246.31 171.10 260.95 C 170.65 263.82 171.29 268.05 167.94 269.35 C 164.29 270.15 161.04 267.69 157.95 266.13 C 144.31 258.36 130.60 250.71 116.92 243.02 C 114.35 241.45 111.46 239.67 110.60 236.59 C 108.75 230.62 109.43 224.29 109.16 218.14 C 108.51 204.79 108.63 191.42 107.86 178.08 Z"
     fill="#abb174"
     opacity="1.00"
     stroke="#abb174"
     stroke-width="0.25"
     id="path27" />
  <path
     d="M 383.64 174.64 C 387.76 172.51 391.64 169.87 396.05 168.35 C 396.60 182.38 395.53 196.43 395.90 210.47 C 395.61 218.29 396.01 226.16 395.11 233.96 C 394.57 238.21 392.07 242.13 388.40 244.36 C 380.12 249.47 371.68 254.31 363.35 259.34 C 357.07 263.16 351.00 267.44 344.21 270.31 C 341.29 271.57 337.87 272.43 334.80 271.24 C 333.01 270.29 332.52 268.26 332.27 266.43 C 332.17 248.59 331.31 230.76 331.42 212.92 C 331.40 207.62 333.37 201.90 338.42 199.42 C 353.34 190.90 368.47 182.72 383.64 174.64 Z"
     fill="#c88751"
     opacity="1.00"
     stroke="#c88751"
     stroke-width="0.25"
     id="path28" />
  <path
     d="M 177.11 215.00 C 177.02 212.83 177.29 210.66 177.75 208.55 C 182.31 210.26 186.28 213.09 190.40 215.62 C 205.35 224.35 220.25 233.19 235.35 241.65 C 238.88 243.75 242.29 246.05 245.48 248.65 C 245.84 268.09 245.50 287.54 245.55 306.99 C 245.65 312.29 245.15 317.63 245.96 322.90 C 240.15 319.82 234.42 316.60 228.85 313.11 C 213.61 303.68 197.92 294.98 182.98 285.08 C 180.28 283.35 178.33 280.38 178.40 277.11 C 177.61 256.41 177.52 235.70 177.11 215.00 Z"
     fill="#769b48"
     opacity="1.00"
     stroke="#769b48"
     stroke-width="0.25"
     id="path29" />
  <path
     d="M 55.50 209.98 C 57.26 212.25 56.00 215.44 55.76 218.00 L 58.01 217.18 C 56.89 217.94 55.77 218.72 54.65 219.49 C 53.98 219.41 52.65 219.25 51.98 219.17 C 52.15 215.78 53.39 212.62 55.50 209.98 Z"
     fill="#bbcc8b"
     opacity="1.00"
     stroke="#bbcc8b"
     stroke-width="0.25"
     id="path30" />
  <path
     d="M 320.05 211.01 C 321.09 210.34 322.36 210.29 323.55 210.12 C 324.88 214.28 324.04 218.72 324.21 223.01 C 323.18 242.70 323.62 262.43 323.09 282.14 C 323.26 285.27 319.85 286.36 317.77 287.89 C 296.24 300.62 274.80 313.51 253.33 326.36 C 253.82 312.24 253.34 298.11 253.30 283.99 C 253.43 272.67 251.99 261.33 252.86 250.05 C 256.18 246.36 261.16 244.87 265.31 242.33 C 283.61 231.99 302.16 222.06 320.05 211.01 Z"
     fill="#c06739"
     opacity="1.00"
     stroke="#c06739"
     stroke-width="0.25"
     id="path31" />
  <path
     d="M 58.01 217.18 L 58.87 216.59 C 61.93 218.42 65.07 220.14 68.23 221.79 C 78.38 227.16 88.12 233.35 98.65 237.97 C 98.18 238.25 97.25 238.81 96.79 239.09 C 83.61 233.84 71.64 226.12 59.24 219.33 C 58.37 219.96 57.49 220.58 56.62 221.21 C 56.13 220.78 55.14 219.92 54.65 219.49 C 55.77 218.72 56.89 217.94 58.01 217.18 Z"
     fill="#d2d893"
     opacity="1.00"
     stroke="#d2d893"
     stroke-width="0.25"
     id="path32" />
  <path
     d="M 56.62 221.21 C 57.49 220.58 58.37 219.96 59.24 219.33 C 71.64 226.12 83.61 233.84 96.79 239.09 C 97.25 238.81 98.18 238.25 98.65 237.97 C 100.36 238.81 102.06 239.67 103.79 240.47 C 104.12 242.30 104.47 244.12 104.81 245.95 C 92.70 242.07 81.79 235.41 70.69 229.35 C 66.05 226.54 61.08 224.30 56.62 221.21 Z"
     fill="#adc587"
     opacity="1.00"
     stroke="#adc587"
     stroke-width="0.25"
     id="path33" />
  <path
     d="M 437.72 220.81 C 440.27 219.59 443.23 218.33 446.02 219.67 C 431.19 228.22 415.83 235.82 400.80 244.00 C 399.61 244.63 398.26 244.75 396.97 244.96 C 398.62 241.57 401.61 238.95 405.36 238.25 C 416.69 233.52 426.75 226.27 437.72 220.81 Z"
     fill="#f77f53"
     opacity="1.00"
     stroke="#f77f53"
     stroke-width="0.25"
     id="path34" />
  <path
     d="M 446.02 219.67 L 446.26 219.54 C 448.18 221.26 450.95 222.99 450.46 226.00 C 450.45 241.97 450.68 257.96 449.53 273.90 C 448.84 279.25 445.25 283.97 440.63 286.63 C 430.64 292.19 421.20 298.68 411.19 304.20 C 408.11 305.61 404.77 307.64 401.27 306.53 C 399.59 305.95 397.08 305.18 397.18 302.98 C 397.19 283.66 396.97 264.34 396.51 245.02 L 396.97 244.96 C 398.26 244.75 399.61 244.63 400.80 244.00 C 415.83 235.82 431.19 228.22 446.02 219.67 Z"
     fill="#853a19"
     opacity="1.00"
     stroke="#853a19"
     stroke-width="0.25"
     id="path35" />
  <path
     d="M 51.98 219.17 C 52.65 219.25 53.98 219.41 54.65 219.49 C 55.14 219.92 56.13 220.78 56.62 221.21 C 61.08 224.30 66.05 226.54 70.69 229.35 C 81.79 235.41 92.70 242.07 104.81 245.95 C 104.47 244.12 104.12 242.30 103.79 240.47 C 106.51 242.47 106.85 246.09 107.42 249.16 C 108.24 257.75 107.48 266.41 108.14 275.01 C 108.05 283.62 108.75 292.38 106.89 300.85 C 105.84 306.01 99.13 307.65 94.90 305.41 C 82.27 299.39 71.23 290.62 59.01 283.88 C 55.49 281.73 51.86 278.51 51.80 274.04 C 51.45 260.72 51.64 247.38 51.48 234.05 C 51.56 229.09 51.22 224.09 51.98 219.17 Z"
     fill="#7ba04d"
     opacity="1.00"
     stroke="#7ba04d"
     stroke-width="0.25"
     id="path36" />
  <path
     d="M 111.94 251.56 C 113.21 249.73 114.78 248.14 116.65 246.93 C 119.84 250.00 123.71 252.20 127.44 254.53 C 137.24 260.49 146.98 266.55 157.08 271.98 C 162.37 274.98 167.88 277.65 172.72 281.36 C 170.67 281.43 168.51 281.45 166.74 280.24 C 161.86 277.33 156.54 275.25 151.72 272.23 C 146.50 269.14 141.32 265.95 135.91 263.20 C 135.27 263.89 134.63 264.58 133.99 265.27 C 126.79 260.46 119.10 256.42 111.94 251.56 Z"
     fill="#d7c68d"
     opacity="1.00"
     stroke="#d7c68d"
     stroke-width="0.25"
     id="path37" />
  <path
     d="M 385.42 251.53 C 388.28 250.17 391.69 246.85 394.62 249.87 C 382.84 255.30 371.97 262.44 360.59 268.63 C 352.86 272.87 345.83 278.64 337.32 281.28 C 353.51 271.62 369.29 261.28 385.42 251.53 Z"
     fill="#f77f53"
     opacity="1.00"
     stroke="#f77f53"
     stroke-width="0.25"
     id="path38" />
  <path
     d="M 394.62 249.87 C 394.70 268.89 394.68 287.93 394.34 306.95 C 394.44 312.28 392.52 317.79 387.98 320.89 C 378.65 327.83 368.57 333.73 358.44 339.43 C 353.75 342.06 348.93 344.57 343.69 345.93 C 339.93 346.57 335.16 345.45 333.50 341.66 C 332.16 336.88 332.81 331.84 332.64 326.94 C 332.88 314.44 331.71 301.89 333.06 289.44 C 333.70 286.44 334.57 283.03 337.32 281.28 C 345.83 278.64 352.86 272.87 360.59 268.63 C 371.97 262.44 382.84 255.30 394.62 249.87 Z"
     fill="#c26e3c"
     opacity="1.00"
     stroke="#c26e3c"
     stroke-width="0.25"
     id="path39" />
  <path
     d="M 111.77 251.44 L 111.94 251.56 C 119.10 256.42 126.79 260.46 133.99 265.27 C 142.75 270.91 151.73 276.19 160.97 281.01 C 165.31 283.22 169.31 286.08 173.90 287.80 L 174.19 287.92 C 174.47 302.31 173.69 316.68 173.82 331.06 C 173.72 334.93 173.91 338.94 172.59 342.65 C 171.34 345.99 167.23 347.35 164.03 346.09 C 156.54 343.44 149.89 338.97 142.96 335.17 C 133.32 329.26 123.24 323.90 114.55 316.58 C 111.85 308.35 112.45 299.51 111.86 290.98 C 111.77 277.80 111.01 264.60 111.77 251.44 Z"
     fill="#8ea35a"
     opacity="1.00"
     stroke="#8ea35a"
     stroke-width="0.25"
     id="path40" />
  <path
     d="M 135.91 263.20 C 141.32 265.95 146.50 269.14 151.72 272.23 C 156.54 275.25 161.86 277.33 166.74 280.24 C 168.51 281.45 170.67 281.43 172.72 281.36 L 173.26 281.36 C 173.98 283.43 173.87 285.64 173.90 287.80 C 169.31 286.08 165.31 283.22 160.97 281.01 C 151.73 276.19 142.75 270.91 133.99 265.27 C 134.63 264.58 135.27 263.89 135.91 263.20 Z"
     fill="#c0c18c"
     opacity="1.00"
     stroke="#c0c18c"
     stroke-width="0.25"
     id="path41" />
  <path
     d="M 439.88 291.64 C 441.17 290.87 442.47 290.04 443.98 289.75 C 446.24 290.00 448.09 291.37 449.82 292.75 C 449.83 306.83 449.40 320.91 449.37 334.99 C 449.09 340.70 449.84 346.58 448.21 352.13 C 446.41 354.97 443.55 356.91 440.87 358.85 C 430.23 366.08 419.43 373.14 408.22 379.44 C 404.50 381.81 400.05 381.68 395.82 381.59 C 394.39 377.55 393.39 373.34 393.49 369.03 C 393.33 353.35 392.83 337.66 393.55 321.99 C 393.35 319.97 394.58 318.42 396.14 317.34 L 396.34 318.98 C 407.38 313.30 417.95 306.75 428.94 300.97 C 435.09 297.65 441.50 294.82 447.40 291.06 C 444.87 290.23 442.27 290.57 439.88 291.64 Z"
     fill="#b82227"
     opacity="1.00"
     stroke="#b82227"
     stroke-width="0.25"
     id="path42" />
  <path
     d="M 55.89 295.16 C 57.21 293.85 58.41 292.38 60.02 291.40 L 60.52 292.07 C 62.24 294.47 64.20 296.80 66.83 298.25 C 78.72 304.80 89.66 312.94 101.73 319.18 C 103.13 320.09 104.42 321.17 105.68 322.28 C 95.49 316.88 85.25 311.54 75.47 305.40 C 69.16 301.62 63.00 297.35 55.89 295.16 Z"
     fill="#eee1b3"
     opacity="1.00"
     stroke="#eee1b3"
     stroke-width="0.25"
     id="path43" />
  <path
     d="M 179.94 296.98 C 179.99 294.57 181.40 292.61 182.86 290.82 C 203.50 303.99 224.37 316.93 246.33 327.79 C 246.30 330.07 246.29 332.35 246.36 334.63 C 228.40 324.55 209.45 316.20 192.39 304.56 C 188.35 301.86 184.41 298.95 179.94 296.98 Z"
     fill="#bbca87"
     opacity="1.00"
     stroke="#bbca87"
     stroke-width="0.25"
     id="path44" />
  <path
     d="M 439.88 291.64 C 442.27 290.57 444.87 290.23 447.40 291.06 C 441.50 294.82 435.09 297.65 428.94 300.97 C 417.95 306.75 407.38 313.30 396.34 318.98 L 396.14 317.34 C 400.44 313.63 405.64 311.26 410.54 308.48 C 420.50 303.19 430.12 297.29 439.88 291.64 Z"
     fill="#e4565d"
     opacity="1.00"
     stroke="#e4565d"
     stroke-width="0.25"
     id="path45" />
  <path
     d="M 60.52 292.07 C 67.81 294.74 74.19 299.33 80.96 303.06 C 88.44 307.71 96.13 312.04 103.51 316.86 C 103.06 317.44 102.18 318.60 101.73 319.18 C 89.66 312.94 78.72 304.80 66.83 298.25 C 64.20 296.80 62.24 294.47 60.52 292.07 Z"
     fill="#d8ce80"
     opacity="1.00"
     stroke="#d8ce80"
     stroke-width="0.25"
     id="path46" />
  <path
     d="M 305.87 300.62 C 311.04 297.66 315.82 294.04 321.19 291.43 C 321.80 291.95 323.04 293.00 323.65 293.53 C 322.33 294.96 320.87 296.29 319.13 297.20 C 306.03 304.27 293.43 312.22 280.41 319.43 C 271.29 324.92 262.03 330.19 253.15 336.06 C 252.93 334.88 252.72 333.71 252.51 332.54 C 255.57 329.40 259.70 327.77 263.40 325.56 C 277.62 317.35 291.57 308.68 305.87 300.62 Z"
     fill="#e96341"
     opacity="1.00"
     stroke="#e96341"
     stroke-width="0.25"
     id="path47" />
  <path
     d="M 323.65 293.53 C 324.03 300.69 323.44 307.85 323.39 315.02 C 323.18 323.35 323.39 331.69 322.88 340.01 C 322.63 346.35 323.17 352.75 322.15 359.05 C 321.41 363.67 316.84 365.94 313.36 368.35 C 299.93 376.92 286.22 385.05 272.91 393.80 C 267.89 397.05 262.85 400.83 256.77 401.71 C 255.98 400.13 254.91 398.63 254.63 396.87 C 253.61 386.63 253.60 376.32 253.31 366.04 C 252.69 354.71 251.81 343.35 252.41 332.00 L 252.51 332.54 C 252.72 333.71 252.93 334.88 253.15 336.06 C 262.03 330.19 271.29 324.92 280.41 319.43 C 293.43 312.22 306.03 304.27 319.13 297.20 C 320.87 296.29 322.33 294.96 323.65 293.53 Z"
     fill="#c4492c"
     opacity="1.00"
     stroke="#c4492c"
     stroke-width="0.25"
     id="path48" />
  <path
     d="M 53.62 306.07 C 53.72 302.37 53.43 298.24 55.89 295.16 C 63.00 297.35 69.16 301.62 75.47 305.40 C 85.25 311.54 95.49 316.88 105.68 322.28 C 104.42 321.17 103.13 320.09 101.73 319.18 C 102.18 318.60 103.06 317.44 103.51 316.86 C 107.84 319.37 110.73 323.86 110.59 328.96 C 110.38 342.29 110.23 355.63 110.16 368.96 C 109.93 372.41 110.14 376.19 108.26 379.24 C 105.68 382.51 100.78 382.19 97.36 380.57 C 89.70 376.89 82.83 371.81 75.62 367.34 C 70.12 363.51 64.07 360.43 59.05 355.95 C 55.46 352.73 54.75 347.64 54.40 343.09 C 53.80 330.76 53.63 318.41 53.62 306.07 Z"
     fill="#adaf72"
     opacity="1.00"
     stroke="#adaf72"
     stroke-width="0.25"
     id="path49" />
  <path
     d="M 179.94 296.98 C 184.41 298.95 188.35 301.86 192.39 304.56 C 209.45 316.20 228.40 324.55 246.36 334.63 C 246.53 353.08 246.30 371.53 246.15 389.97 C 245.83 393.23 246.51 397.32 243.71 399.69 C 241.51 399.36 239.55 398.24 237.64 397.20 C 221.27 386.61 204.66 376.37 188.53 365.41 C 185.43 363.28 182.14 360.62 181.36 356.73 C 180.57 352.21 180.77 347.60 180.59 343.03 C 180.41 327.68 179.39 312.33 179.94 296.98 Z"
     fill="#759a48"
     opacity="1.00"
     stroke="#759a48"
     stroke-width="0.25"
     id="path50" />
  <path
     d="M 115.77 331.12 C 116.71 328.93 118.43 327.26 120.16 325.68 C 123.69 328.71 127.59 331.23 131.50 333.73 L 131.56 333.98 C 131.89 335.28 132.20 336.75 133.52 337.44 C 137.74 340.44 142.20 343.10 146.29 346.29 C 147.41 348.07 148.40 349.92 149.39 351.77 C 138.02 345.16 127.24 337.57 115.77 331.12 Z"
     fill="#c2be85"
     opacity="1.00"
     stroke="#c2be85"
     stroke-width="0.25"
     id="path51" />
  <path
     d="M 385.14 329.08 C 386.14 328.44 387.33 328.58 388.46 328.73 C 386.32 330.56 384.07 332.26 381.65 333.70 C 367.06 342.45 352.74 351.66 337.73 359.69 C 333.36 361.95 329.51 365.23 324.73 366.64 C 324.85 363.54 328.01 362.50 330.22 361.13 C 336.06 358.11 341.65 354.62 347.41 351.46 C 360.28 344.50 372.14 335.81 385.14 329.08 Z"
     fill="#e24d4f"
     opacity="1.00"
     stroke="#e24d4f"
     stroke-width="0.25"
     id="path52" />
  <path
     d="M 388.46 328.73 C 389.11 329.36 389.75 330.01 390.39 330.67 C 390.52 344.80 390.30 358.93 389.69 373.04 C 389.24 379.10 390.92 385.92 387.37 391.32 C 382.48 395.97 376.16 398.72 370.66 402.55 C 361.85 408.52 352.75 414.02 343.98 420.03 C 339.11 423.75 333.75 426.86 327.85 428.60 C 326.94 425.81 326.30 422.93 326.26 420.00 C 325.05 402.23 326.78 384.35 324.73 366.64 C 329.51 365.23 333.36 361.95 337.73 359.69 C 352.74 351.66 367.06 342.45 381.65 333.70 C 384.07 332.26 386.32 330.56 388.46 328.73 Z"
     fill="#b82227"
     opacity="1.00"
     stroke="#b82227"
     stroke-width="0.25"
     id="path53" />
  <path
     d="M 115.77 331.12 C 127.24 337.57 138.02 345.16 149.39 351.77 C 157.76 356.85 166.06 362.25 175.27 365.68 C 175.56 377.17 175.26 388.66 175.10 400.15 C 174.55 407.71 175.09 415.37 173.66 422.84 C 173.42 424.33 172.58 425.81 170.99 426.17 C 166.56 427.04 162.59 424.32 158.99 422.15 C 146.98 414.18 134.94 406.23 123.49 397.47 C 117.68 393.19 117.07 385.55 116.64 378.95 C 115.95 363.02 115.06 347.07 115.77 331.12 Z"
     fill="#749a47"
     opacity="1.00"
     stroke="#749a47"
     stroke-width="0.25"
     id="path54" />
  <path
     d="M 133.52 337.44 C 132.20 336.75 131.89 335.28 131.56 333.98 C 141.04 339.59 150.15 345.79 159.78 351.14 C 164.90 354.14 170.25 356.79 175.00 360.38 C 173.78 361.14 172.40 361.88 171.05 360.92 C 162.55 356.51 154.50 351.23 146.29 346.29 C 142.20 343.10 137.74 340.44 133.52 337.44 Z"
     fill="#d2d893"
     opacity="1.00"
     stroke="#d2d893"
     stroke-width="0.25"
     id="path55" />
  <path
     d="M 149.39 351.77 C 148.40 349.92 147.41 348.07 146.29 346.29 C 154.50 351.23 162.55 356.51 171.05 360.92 C 172.40 361.88 173.78 361.14 175.00 360.38 C 175.11 362.14 175.20 363.90 175.27 365.68 C 166.06 362.25 157.76 356.85 149.39 351.77 Z"
     fill="#b1bb86"
     opacity="1.00"
     stroke="#b1bb86"
     stroke-width="0.25"
     id="path56" />
  <path
     d="M 180.70 369.25 C 181.38 368.12 182.10 367.02 182.82 365.91 C 191.03 371.43 199.10 377.19 207.49 382.46 C 218.49 389.45 229.20 396.92 240.42 403.57 C 242.51 404.82 244.48 406.27 246.38 407.81 C 246.47 409.98 246.55 412.16 246.58 414.34 C 234.12 406.01 220.99 398.75 208.39 390.64 C 199.05 385.42 190.86 378.34 181.23 373.63 C 181.05 372.16 180.87 370.70 180.70 369.25 Z"
     fill="#d7d8b5"
     opacity="1.00"
     stroke="#d7d8b5"
     stroke-width="0.25"
     id="path57" />
  <path
     d="M 180.39 384.01 C 180.47 379.09 180.13 374.14 180.70 369.25 C 180.87 370.70 181.05 372.16 181.23 373.63 C 190.86 378.34 199.05 385.42 208.39 390.64 C 220.99 398.75 234.12 406.01 246.58 414.34 C 246.39 433.88 246.49 453.42 246.29 472.96 C 246.09 475.63 246.60 480.13 243.04 480.66 C 240.15 479.99 237.79 478.01 235.35 476.42 C 225.34 469.17 214.99 462.41 204.95 455.20 C 198.66 450.75 192.01 446.80 186.03 441.92 C 182.83 439.63 181.96 435.47 181.40 431.82 C 180.56 415.90 180.53 399.95 180.39 384.01 Z"
     fill="#babb8e"
     opacity="1.00"
     stroke="#babb8e"
     stroke-width="0.25"
     id="path58" />
  <path
     d="M 315.94 371.95 C 317.93 370.72 320.96 368.99 322.49 371.80 C 318.39 375.11 313.80 377.71 309.23 380.30 C 298.02 387.07 286.57 393.46 275.67 400.72 C 269.90 404.64 263.25 407.31 258.16 412.18 C 257.34 413.01 256.29 413.56 255.11 413.65 C 255.98 409.05 260.18 406.76 263.88 404.69 C 281.62 394.40 298.47 382.68 315.94 371.95 Z"
     fill="#e13840"
     opacity="1.00"
     stroke="#e13840"
     stroke-width="0.25"
     id="path59" />
  <path
     d="M 322.49 371.80 C 323.67 379.47 323.18 387.25 323.28 394.98 C 323.01 408.08 323.86 421.28 321.74 434.26 C 319.95 438.41 316.21 441.16 312.63 443.68 C 296.51 454.05 280.25 464.20 263.80 474.04 C 261.81 475.06 259.74 475.92 257.70 476.81 C 256.38 475.18 255.02 473.38 255.29 471.15 C 255.35 460.10 255.31 449.05 254.76 438.02 C 254.99 429.90 253.68 421.69 255.11 413.65 C 256.29 413.56 257.34 413.01 258.16 412.18 C 263.25 407.31 269.90 404.64 275.67 400.72 C 286.57 393.46 298.02 387.07 309.23 380.30 C 313.80 377.71 318.39 375.11 322.49 371.80 Z"
     fill="#b92126"
     opacity="1.00"
     stroke="#b92126"
     stroke-width="0.25"
     id="path60" />
  <path
     d="M 396.83 386.96 C 398.72 383.60 402.92 383.77 405.75 385.74 C 404.00 386.90 402.20 388.00 400.45 389.15 C 399.24 388.41 398.03 387.69 396.83 386.96 Z"
     fill="#493f42"
     opacity="1.00"
     stroke="#493f42"
     stroke-width="0.25"
     id="path61" />
  <text
     xml:space="preserve"
     transform="matrix(2.1632573,0,0,1.2937442,-162.24461,-93.266076)"
     id="text62"
     style="font-style:normal;font-variant:normal;font-weight:normal;font-stretch:normal;font-size:37.3333px;line-height:0.7;font-family:sans-serif;-inkscape-font-specification:sans-serif;white-space:pre;shape-inside:url(#rect63);fill:#000000"><tspan
       x="119.73633"
       y="182.612"
       id="tspan1">J</tspan></text>
  <text
     xml:space="preserve"
     transform="matrix(2.4364332,0,0,1.5541421,-506.24945,-115.04428)"
     id="text63"
     style="font-style:normal;font-variant:normal;font-weight:normal;font-stretch:normal;font-size:26.6667px;line-height:0.7;font-family:sans-serif;-inkscape-font-specification:sans-serif;white-space:pre;shape-inside:url(#rect64);fill:#000000"><tspan
       x="300.17383"
       y="161.67714"
       id="tspan2">N</tspan></text>
  <text
     xml:space="preserve"
     transform="matrix(2.110645,0,0,1.6184734,-670.94412,-137.03318)"
     id="text64"
     style="font-style:normal;font-variant:normal;font-weight:normal;font-stretch:normal;font-size:26.6667px;line-height:0.7;font-family:sans-serif;-inkscape-font-specification:sans-serif;white-space:pre;shape-inside:url(#rect65);fill:#000000"><tspan
       x="491.41992"
       y="169.99354"
       id="tspan3">R</tspan></text>
</svg>
